# xmcd
#
# Track frame offsets:
#	150
#	3545
#	16047
#	27517
#	40475
#	57320
#	70145
#	84027
#
# Disc length: 1359 seconds
#
# Revision: 0
# Processed by: cddbd v1.4PL0 Copyright (c) Steve Scherf et al.
# Submitted via: dBpowerAMP V4.0
#
DISCID=59054d08
DTITLE=Soul Jam - Carca Soul
DYEAR=1999
DGENRE=Soul
TTITLE0=Intro (French Radio Fries)
TTITLE1=Save Me (Short Smoke Mix)
TTITLE2=Hard to Handle
TTITLE3=Walking the Dog
TTITLE4=I Never Loved a Man (The Way I Love You)
TTITLE5=Respect
TTITLE6=Soul Girl
TTITLE7=Save Me
EXTD=
EXTT0=
EXTT1=
EXTT2=
EXTT3=
EXTT4=
EXTT5=
EXTT6=
EXTT7=
PLAYORDER=
